<svg xmlns="http://www.w3.org/2000/svg" viewBox="0 0 128 128"><defs><style>.cls-1{fill:#7842ed;}.cls-2{fill:none;}</style></defs><title>ArcGIS_Hub_Glyph_128</title><g id="icons"><path class="cls-1" d="M28.1,49A6.9,6.9,0,1,1,35,55.9,6.9,6.9,0,0,1,28.1,49Zm70.88,2.5179A.25046.25046,0,0,0,98.61856,51.4l-6.87113,4.19823a.24959.24959,0,0,0-.10557.29533,29.355,29.355,0,0,1,.367,18.09881,2.232,2.232,0,0,0,.97078,2.55118l5.83045,3.56234a.25006.25006,0,0,0,.36277-.12113A37.92046,37.92046,0,0,0,98.98,51.5179ZM85.325,85.52881A1.93965,1.93965,0,0,1,87.75237,85.2L93.788,88.88774a.25046.25046,0,0,1,.06661.36735A37.82446,37.82446,0,0,1,26.37411,61.95146a.25005.25005,0,0,1,.38434-.183,15.12276,15.12276,0,0,0,8.0134,2.42c-.01923.43536-.0332.87213-.0332,1.31219a29.14025,29.14025,0,0,0,2.6167,12.09143l11.33882-6.92793a.27357.27357,0,0,0,.12057-.309A15.77233,15.77233,0,0,1,60,50.73077V36.81067a.25045.25045,0,0,0-.28672-.24732A29.098,29.098,0,0,0,47.93549,41.047a15.24416,15.24416,0,0,0-5.83218-5.46943.25.25,0,0,1-.02769-.42446,37.82742,37.82742,0,0,1,51.779,7.59174.25.25,0,0,1-.06661.36735L87.101,47.198a.24991.24991,0,0,1-.32463-.0565A29.22532,29.22532,0,0,0,68.28669,36.56257.25.25,0,0,0,68,36.80989V50.73077a15.77908,15.77908,0,0,1,.18392,30.48913A.24974.24974,0,0,0,68,81.46085V94.47931A29.19607,29.19607,0,0,0,85.325,85.52881ZM60,81.46085a.25.25,0,0,0-.18394-.24095,15.755,15.755,0,0,1-6.76369-3.8435L41.63,84.35541A29.20856,29.20856,0,0,0,60,94.48279ZM64,75.1A9.1,9.1,0,1,0,54.9,66,9.1,9.1,0,0,0,64,75.1Z"/><rect class="cls-2" y="-0.51151" width="128" height="128"/></g></svg>